<svg width="22" height="22" viewBox="0 0 22 22" fill="none" xmlns="http://www.w3.org/2000/svg">
<path opacity="0.7" fill-rule="evenodd" clip-rule="evenodd" d="M9.92114 4.89844C8.57609 4.89844 7.28612 5.43276 6.33503 6.38385C5.38393 7.33495 4.84961 8.62491 4.84961 9.96997C4.84961 11.315 5.38393 12.605 6.33503 13.5561C7.28612 14.5072 8.57609 15.0415 9.92114 15.0415C11.0646 15.0415 12.1683 14.6553 13.0578 13.9552L16.1265 17.0243C16.3608 17.2586 16.7407 17.2586 16.975 17.0243C17.2093 16.79 17.2093 16.4101 16.975 16.1758L13.9063 13.1066C14.6065 12.2172 14.9927 11.1135 14.9927 9.96997C14.9927 8.62491 14.4584 7.33495 13.5073 6.38385C12.5562 5.43276 11.2662 4.89844 9.92114 4.89844ZM12.6724 12.6938C13.3899 11.9691 13.7927 10.9903 13.7927 9.96997C13.7927 8.94317 13.3848 7.95844 12.6587 7.23238C11.9327 6.50633 10.9479 6.09844 9.92114 6.09844C8.89435 6.09844 7.90961 6.50633 7.18355 7.23238C6.4575 7.95844 6.04961 8.94317 6.04961 9.96997C6.04961 10.9968 6.4575 11.9815 7.18355 12.7076C7.90961 13.4336 8.89435 13.8415 9.92114 13.8415C10.9415 13.8415 11.9203 13.4387 12.645 12.7212C12.6495 12.7165 12.6539 12.7118 12.6585 12.7072C12.6631 12.7027 12.6677 12.6982 12.6724 12.6938Z" fill="white" fill-opacity="0.7"/>
</svg>
